# xmcd
#
# Track frame offsets:
#	150
#	15303
#	30794
#	48772
#	64740
#	80292
#	92635
#	118741
#	132912
#	146654
#	162407
#	178884
#
# Disc length: 2654 seconds
#
# Revision: 0
# Processed by: cddbd v1.5.2PL0 Copyright (c) Steve Scherf et al.
# Submitted via: dBpowerAMP V4.0
#
DISCID=920a5c0c
DTITLE=Tim Hus - Bush Pilot Buckaroo
DYEAR=2008
DGENRE=Country
TTITLE0=Dempster Highway
TTITLE1=Cattlerack Cadillac
TTITLE2=Bush Pilot Buckaroo
TTITLE3=Battle River
TTITLE4=A Hundred Grande
TTITLE5=Bakersfield Music
TTITLE6=Man with the Big Hat(Feat. Gary Fjellgaard)
TTITLE7=Coal Mine
TTITLE8=Hockey Mom
TTITLE9=Vancouver Blues
TTITLE10=Roadhouse Band
TTITLE11=The Great Divide
EXTD=
EXTT0=
EXTT1=
EXTT2=
EXTT3=
EXTT4=
EXTT5=
EXTT6=
EXTT7=
EXTT8=
EXTT9=
EXTT10=
EXTT11=
PLAYORDER=
